<?xml version="1.0" encoding="UTF-8"?>
<svg width="360px" height="108px" viewBox="0 0 360 108" version="1.1" xmlns="http://www.w3.org/2000/svg" xmlns:xlink="http://www.w3.org/1999/xlink">
    <!-- Generator: Sketch 49.2 (51160) - http://www.bohemiancoding.com/sketch -->
    <title>SH-tacoObjects</title>
    <desc>Created with Sketch.</desc>
    <defs>
        <rect id="path-1" x="0" y="0" width="359.490085" height="108"></rect>
    </defs>
    <g id="SUPER-HOME" stroke="none" stroke-width="1" fill="none" fill-rule="evenodd">
        <g id="SH-tacoObjects">
            <mask id="mask-2" fill="white">
                <use xlink:href="#path-1"></use>
            </mask>
            <use id="Mask" fill="#FDF5EC" transform="translate(179.745042, 54.000000) rotate(-180.000000) translate(-179.745042, -54.000000) " xlink:href="#path-1"></use>
            <ellipse id="Oval" fill="#FAD8B0" mask="url(#mask-2)" cx="178.470255" cy="136.5" rx="133.597734" ry="118.5"></ellipse>
            <g id="Icon/Duedate/Large/Gray-" mask="url(#mask-2)">
                <g transform="translate(283.512748, 64.000000)" id="duedate">
                    <g>
                        <ellipse id="Oval-2" fill="#CD8DE5" cx="15.8073654" cy="15.5" rx="15.8073654" ry="15.5"></ellipse>
                        <path d="M10.2240531,15.4589125 C9.10761726,15.4589125 8.15864023,16.2799364 8.15864023,17.3196148 C8.15864023,18.3592932 9.10761726,19 10.2240531,19 L18.3569405,19 L18.3569405,7.9779248 C18.3437814,6.93831863 17.4389256,5.98786283 16.3225673,6.00011722 C15.2062091,6.0123716 14.2528722,7.07152858 14.2660313,8.11113475 L14.2660313,15.4589125 L10.2240531,15.4589125 Z" id="Stroke-3" fill="#A86CC1" fill-rule="nonzero"></path>
                    </g>
                </g>
            </g>
            <g id="card" mask="url(#mask-2)">
                <g transform="translate(151.954674, 6.000000)">
                    <rect id="card1" fill="#FFFFFF" x="0" y="0" width="47.9320113" height="24" rx="2.5"></rect>
                    <rect id="cardtitle1" fill="#D6DADC" x="4.07932011" y="6" width="37.733711" height="4" rx="2"></rect>
                    <rect id="cardtitle1" fill="#D6DADC" x="4.07932011" y="14" width="21.4164306" height="4" rx="2"></rect>
                </g>
            </g>
            <g id="lil'face" mask="url(#mask-2)">
                <g transform="translate(85.665722, 26.000000)">
                    <rect id="Rectangle-2" fill="#FF80CE" x="0" y="0" width="28.5552408" height="28" rx="3"></rect>
                    <g id="face" stroke-width="1" fill="none" transform="translate(6.118980, 10.000000)">
                        <path d="M2.16339179,0.549879227 C1.95311384,0.315411836 1.69587382,0.197826087 1.39237264,0.197826087 C1.08887146,0.197826087 0.843547188,0.315411836 0.656399811,0.549879227 C0.422991285,0.737875604 0.305936559,0.995578502 0.305936559,1.32439614 L0.305936559,4.17602657 C0.305936559,4.48090459 0.422991285,4.7512814 0.656399811,4.98574879 C0.843547188,5.17374517 1.08887146,5.2673913 1.39237264,5.2673913 C1.69587382,5.2673913 1.95311384,5.17374517 2.16339179,4.98574879 C2.37366974,4.7512814 2.47880872,4.48090459 2.47880872,4.17602657 L2.47880872,1.32439614 C2.47880872,0.995578502 2.37366974,0.737875604 2.16339179,0.549879227 Z M15.4211822,0.549879227 C15.2109042,0.315411836 14.9536642,0.197826087 14.650163,0.197826087 C14.3466618,0.197826087 14.1013376,0.315411836 13.9141902,0.549879227 C13.6807817,0.737875604 13.5637269,0.995578502 13.5637269,1.32439614 L13.5637269,4.17602657 C13.5637269,4.48090459 13.6807817,4.7512814 13.9141902,4.98574879 C14.1013376,5.17374517 14.3466618,5.2673913 14.650163,5.2673913 C14.9536642,5.2673913 15.2109042,5.17374517 15.4211822,4.98574879 C15.6314601,4.7512814 15.7365991,4.48090459 15.7365991,4.17602657 L15.7365991,1.32439614 C15.7365991,0.995578502 15.6314601,0.737875604 15.4211822,0.549879227 Z" id="Fill-4" fill="#B44772"></path>
                        <path d="M15.3888835,10.6085826 C15.6139494,10.2508 15.7827489,9.85514783 15.8952818,9.42162609 C16.1203478,8.42288696 15.7827489,7.86727826 14.8824851,7.75423478 L1.0690632,7.75423478 C0.187367392,7.86727826 -0.140666211,8.42288696 0.0843997261,9.42162609 C0.196932695,9.85514783 0.365732148,10.2508 0.590798085,10.6085826 C1.73469571,12.4924522 4.17272248,13.4629304 7.90544105,13.5194522 C11.731562,13.4629304 14.2264179,12.4924522 15.3888835,10.6085826" id="Fill-6" fill="#CD5A91"></path>
                    </g>
                </g>
            </g>
            <g id="checkmark" mask="url(#mask-2)">
                <g transform="translate(237.620397, 26.000000)">
                    <rect id="Rectangle-2" stroke="none" fill="#61BD4F" fill-rule="evenodd" x="0" y="0" width="28.5552408" height="28" rx="3"></rect>
                    <path d="M8.55167894,12.8587541 C8.20275458,12.4330659 7.58512316,12.3795529 7.17216056,12.7392295 C6.75919795,13.0989061 6.70728471,13.7355701 7.05620907,14.1612583 L12.0054451,20.1993329 L22.1042269,8.68582924 C22.4668121,8.27245005 22.4356533,7.63434896 22.0346317,7.26059055 C21.6336102,6.88683214 21.0145846,6.91895113 20.6519994,7.33233031 L12.0553639,17.1332545 L8.55167894,12.8587541 Z" id="Path-6" stroke="#519839" stroke-width="1" fill="#519839" fill-rule="nonzero"></path>
                </g>
            </g>
            <g id="plane" mask="url(#mask-2)">
                <g transform="translate(62.780609, 73.041187) rotate(34.000000) translate(-62.780609, -73.041187) translate(40.780609, 53.041187)">
                    <polygon id="Fill-1" fill="#0079BF" points="-7.07301471e-05 27.48 16.2678631 32.1635088 43.5803094 -2.27373675e-13"></polygon>
                    <polygon id="Fill-2" fill="#0079BF" points="10.2500953 29.1303717 29.8176374 38.9901754 43.5803094 -1.42108547e-13"></polygon>
                    <polygon id="Fill-3" fill="#055A8C" points="11.5270335 30.7989474 13.8045443 39.7140351 35.1006843 9.98491228"></polygon>
                </g>
            </g>
            <g id="taco-front" mask="url(#mask-2)">
                <g transform="translate(97.903683, 35.000000)">
                    <path d="M125.986665,57.6875185 C125.986665,57.6875185 131.884944,36.8588942 120.259679,9.87587831 C115.301451,-0.617349206 113.420317,-1.28385714 110.514517,1.21429101 C107.607685,3.71344444 92.5627389,18.037836 88.4589152,31.5288413 L80.808488,31.5288413 L80.7651487,31.5288413 L73.1147215,31.5288413 C69.0119298,18.037836 53.9659521,3.71344444 51.0601519,1.21429101 C48.1533198,-1.28385714 46.2732175,-0.617349206 41.3139576,9.87587831 C29.6886929,36.8588942 35.5869721,57.6875185 35.5869721,57.6875185 C28.4060546,70.270746 26.0987501,99.8192646 26.0987501,99.8192646 C26.0987501,99.8192646 32.5098782,90.2006402 50.7175647,94.1976772 C55.6809521,95.2874127 60.1696705,97.1059841 64.079499,99.1728624 C67.4321073,107.839476 72.2355519,110.822175 75.8358136,111.766143 C78.6528713,111.936037 80.5494838,111.973233 80.7651487,111.977254 L80.7651487,111.978259 C80.7651487,111.978259 80.7837227,111.978259 80.7868184,111.977254 C80.789914,111.978259 80.808488,111.978259 80.808488,111.978259 L80.808488,111.977254 C81.0241529,111.973233 82.9207654,111.936037 85.738855,111.766143 C89.3380849,110.822175 94.1415295,107.839476 97.4941378,99.1728624 C101.404998,97.1059841 105.892685,95.2874127 110.856072,94.1976772 C129.063758,90.2006402 135.475918,99.8192646 135.475918,99.8192646 C135.475918,99.8192646 133.167582,70.270746 125.986665,57.6875185" id="Fill-24" fill="#8C9DA5"></path>
                    <path d="M80.7976532,111.977556 L80.7976532,57.5330053 C76.8228157,52.5256508 77.4636189,47.9244339 75.7661611,45.4252804 C74.0687032,42.9271323 67.7184565,42.6768148 67.7184565,42.6768148 C68.3592598,41.927873 74.8993741,38.8044339 74.8993741,38.8044339 C72.206143,38.4304656 67.7184565,38.8044339 67.7184565,38.8044339 C74.1295847,34.0574497 80.7976532,31.5291429 80.7976532,31.5291429 L80.7759835,31.5291429 L73.1255564,31.5291429 C69.0217327,18.0371323 53.976787,3.71274074 51.0699548,1.21459259 C48.1641546,-1.28456085 46.2830205,-0.617047619 41.3258243,9.87617989 C29.6984959,36.8581905 35.5978069,57.6878201 35.5978069,57.6878201 C28.4168894,70.2710476 26.1085531,99.8195661 26.1085531,99.8195661 C26.1085531,99.8195661 32.5196812,90.1999365 50.7283995,94.1979788 C55.6907551,95.286709 60.1805053,97.1062857 64.0903338,99.1721587 C67.4429421,107.838772 72.2463867,110.822476 75.8466484,111.766444 C78.6637062,111.935333 80.5603187,111.973534 80.7759835,111.977556 C80.7759835,111.977556 80.7945575,111.977556 80.7976532,111.977556" id="Fill-26" fill="#627885"></path>
                    <path d="M116.453246,78.0828624 C118.460271,72.211963 121.242244,58.0956667 106.368592,50.6002169 C91.8127617,43.2656138 81.2338328,57.454291 80.7870247,58.0665132 C80.3402167,57.454291 69.7612878,43.2656138 55.2054575,50.6002169 C40.3307735,58.0956667 43.1137789,72.211963 45.1208036,78.0828624 C45.1208036,78.0828624 30.8425515,75.3343968 26.0979246,99.8192646 L31.7402952,99.4865132 L31.7402952,103.650429 C35.6728253,101.817783 41.827013,101.984661 50.717771,106.815085 C59.413502,111.538947 79.8727708,111.961169 80.7653551,111.977254 L80.7653551,111.978259 L80.7870247,111.978259 L80.8086944,111.978259 L80.8086944,111.977254 C81.7012786,111.961169 102.160547,111.538947 110.856278,106.815085 C119.746005,101.984661 125.901224,101.817783 129.833754,103.650429 L129.876062,99.4865132 L135.476125,99.8192646 C130.731498,75.3343968 116.453246,78.0828624 116.453246,78.0828624" id="Fill-28" fill="#FEFEFE"></path>
                    <path d="M37.895102,54.597455 C37.895102,54.597455 41.1001502,41.2311058 52.6418318,36.1091481 C58.7960195,33.611 60.4635526,35.3602063 61.6172048,30.3629048 C62.770857,25.3656032 55.6167686,9.49607937 50.9742987,5.37840741 C48.5380081,3.12957143 46.6145665,4.50380423 45.3319281,7.00295767 C44.0503216,9.50110582 33.6633241,30.2382487 37.895102,54.597455" id="Fill-34" fill="#DADFE1"></path>
                    <path d="M52.4271988,11.7911587 C52.4271988,11.7911587 57.29978,18.1204709 58.7526801,25.282164 C60.2066121,32.4448624 56.0171416,31.1952857 53.4528968,32.5283016 C50.8886519,33.8613175 48.1531134,35.0264497 47.383324,35.5260794 C46.6145665,36.025709 45.2473132,34.6936984 47.383324,33.2782487 C49.5213986,31.8617937 52.4271988,29.4470847 50.2045093,28.2809471 C47.9818198,27.1148095 46.1873643,26.4493069 45.4175749,25.5324815 C44.6477855,24.6166614 45.4175749,24.5332222 47.2130623,24.6166614 C49.0085496,24.7001005 50.9030983,24.7001005 49.3139888,22.4512646 C47.7259112,20.2024286 47.383324,18.7869788 47.383324,17.453963 C47.383324,16.1219524 48.2387602,16.621582 49.7773071,18.3697831 C51.3158541,20.1189894 51.828703,20.9523757 51.6574094,18.5366614 C51.4871477,16.1219524 51.1311459,9.91528571 52.4271988,11.7911587" id="Fill-36" fill="#F3F5F5"></path>
                    <path d="M68.5837989,66.923127 C68.5837989,70.0968307 65.9431942,72.6693704 62.6855197,72.6693704 C59.4278453,72.6693704 56.7872406,70.0968307 56.7872406,66.923127 C56.7872406,63.7494233 59.4278453,58.9069365 62.6855197,58.9069365 C65.9431942,58.9069365 68.5837989,63.7494233 68.5837989,66.923127" id="Fill-38" fill="#1786C4"></path>
                    <path d="M66.0942628,66.2776296 C66.0942628,68.1122857 64.5680986,69.5991111 62.6859325,69.5991111 C60.8027346,69.5991111 59.2776022,68.1122857 59.2776022,66.2776296 C59.2776022,64.4439788 60.8027346,62.9571534 62.6859325,62.9571534 C64.5680986,62.9571534 66.0942628,64.4439788 66.0942628,66.2776296" id="Fill-40" fill="#050706"></path>
                    <path d="M63.803675,63.7790794 C63.803675,64.8889206 62.8801341,65.7886561 61.7409283,65.7886561 C60.6017225,65.7886561 59.6781816,64.8889206 59.6781816,63.7790794 C59.6781816,62.6692381 60.6017225,61.7695026 61.7409283,61.7695026 C62.8801341,61.7695026 63.803675,62.6692381 63.803675,63.7790794" id="Fill-42" fill="#FEFEFE"></path>
                    <path d="M123.678947,54.597455 C123.678947,54.597455 120.472867,41.2311058 108.932218,36.1091481 C102.77803,33.611 101.110497,35.3602063 99.9568447,30.3629048 C98.8031925,25.3656032 105.957281,9.49607937 110.599751,5.37840741 C113.036041,3.12957143 114.959483,4.50380423 116.241089,7.00295767 C117.523728,9.50110582 127.910725,30.2382487 123.678947,54.597455" id="Fill-46" fill="#DADFE1"></path>
                    <path d="M109.146335,11.7911587 C109.146335,11.7911587 104.273754,18.1204709 102.820853,25.282164 C101.366921,32.4448624 105.556392,31.1952857 108.120637,32.5283016 C110.684882,33.8613175 113.42042,35.0264497 114.19021,35.5260794 C114.958967,36.025709 116.327252,34.6936984 114.19021,33.2782487 C112.053167,31.8617937 109.146335,29.4470847 111.369024,28.2809471 C113.591714,27.1148095 115.386169,26.4493069 116.155959,25.5324815 C116.925748,24.6166614 116.155959,24.5332222 114.360471,24.6166614 C112.564984,24.7001005 110.671467,24.7001005 112.259545,22.4512646 C113.847622,20.2024286 114.19021,18.7869788 114.19021,17.453963 C114.19021,16.1219524 113.334773,16.621582 111.796226,18.3697831 C110.257679,20.1189894 109.744831,20.9523757 109.916124,18.5366614 C110.086386,16.1219524 110.44342,9.91528571 109.146335,11.7911587" id="Fill-48" fill="#F3F5F5"></path>
                    <path d="M104.786499,66.923127 C104.786499,70.0968307 102.145895,72.6693704 98.8882202,72.6693704 C95.6305457,72.6693704 92.989941,70.0968307 92.989941,66.923127 C92.989941,63.7494233 95.6305457,58.9069365 98.8882202,58.9069365 C102.145895,58.9069365 104.786499,63.7494233 104.786499,66.923127" id="Fill-50" fill="#1786C4"></path>
                    <path d="M102.297066,66.2776296 C102.297066,68.1122857 100.770902,69.5991111 98.8887361,69.5991111 C97.0055382,69.5991111 95.4793739,68.1122857 95.4793739,66.2776296 C95.4793739,64.4439788 97.0055382,62.9571534 98.8887361,62.9571534 C100.770902,62.9571534 102.297066,64.4439788 102.297066,66.2776296" id="Fill-52" fill="#050706"></path>
                    <path d="M100.006479,63.7790794 C100.006479,64.8889206 99.0829377,65.7886561 97.9437319,65.7886561 C96.8045261,65.7886561 95.8809852,64.8889206 95.8809852,63.7790794 C95.8809852,62.6692381 96.8045261,61.7695026 97.9437319,61.7695026 C99.0829377,61.7695026 100.006479,62.6692381 100.006479,63.7790794" id="Fill-54" fill="#FEFEFE"></path>
                </g>
            </g>
        </g>
    </g>
</svg>